<svg width="18" height="18" viewBox="0 0 18 18" fill="none" xmlns="http://www.w3.org/2000/svg">
<path d="M8.99998 5.9175L8.19748 7.3125C8.01748 7.62 8.16748 7.875 8.51998 7.875H9.47248C9.83248 7.875 9.97498 8.13 9.79498 8.4375L8.99998 9.8325" stroke="#755AE2" stroke-width="1.5" stroke-linecap="round" stroke-linejoin="round"/>
<path d="M6.22502 13.53V12.66C4.50002 11.6175 3.08252 9.585 3.08252 7.425C3.08252 3.7125 6.49502 0.802502 10.35 1.6425C12.045 2.0175 13.53 3.1425 14.3025 4.695C15.87 7.845 14.22 11.19 11.7975 12.6525V13.5225C11.7975 13.74 11.88 14.2425 11.0775 14.2425H6.94502C6.12002 14.25 6.22502 13.9275 6.22502 13.53Z" stroke="#755AE2" stroke-width="1.5" stroke-linecap="round" stroke-linejoin="round"/>
<path d="M6.375 16.5C8.0925 16.0125 9.9075 16.0125 11.625 16.5" stroke="#755AE2" stroke-width="1.5" stroke-linecap="round" stroke-linejoin="round"/>
</svg>
