<svg width="18" height="18" viewBox="0 0 18 18" fill="none" xmlns="http://www.w3.org/2000/svg">
<path d="M16.5 8.9175V9.585C16.5 12.255 15.8325 12.915 13.17 12.915H4.83C2.1675 12.915 1.5 12.2475 1.5 9.585V4.83C1.5 2.1675 2.1675 1.5 4.83 1.5H6" stroke="#755AE2" stroke-width="1.5" stroke-linecap="round" stroke-linejoin="round"/>
<path d="M9 12.915V16.5" stroke="#755AE2" stroke-width="1.5" stroke-linecap="round" stroke-linejoin="round"/>
<path d="M1.5 9.75H16.5" stroke="#755AE2" stroke-width="1.5" stroke-linecap="round" stroke-linejoin="round"/>
<path d="M5.625 16.5H12.375" stroke="#755AE2" stroke-width="1.5" stroke-linecap="round" stroke-linejoin="round"/>
<path d="M13.395 7.0275H9.82501C8.79001 7.0275 8.44501 6.3375 8.44501 5.6475V3.0075C8.44501 2.1825 9.12001 1.5075 9.94501 1.5075H13.395C14.16 1.5075 14.775 2.1225 14.775 2.8875V5.6475C14.775 6.4125 14.16 7.0275 13.395 7.0275Z" stroke="#755AE2" stroke-width="1.5" stroke-linecap="round" stroke-linejoin="round"/>
<path d="M15.6825 5.94L14.775 5.3025V3.2325L15.6825 2.595C16.1325 2.2875 16.5 2.475 16.5 3.0225V5.52C16.5 6.0675 16.1325 6.255 15.6825 5.94Z" stroke="#755AE2" stroke-width="1.5" stroke-linecap="round" stroke-linejoin="round"/>
</svg>
